<?xml version="1.0" encoding="UTF-8" standalone="no"?>
<!-- Created with Inkscape (http://www.inkscape.org/) -->

<svg
   width="503.13885"
   height="137.34222"
   viewBox="0 0 503.13885 137.34222"
   version="1.1"
   id="svg1"
   inkscape:version="1.4 (86a8ad7, 2024-10-11)"
   sodipodi:docname="ebiddle.svg"
   xml:space="preserve"
   xmlns:inkscape="http://www.inkscape.org/namespaces/inkscape"
   xmlns:sodipodi="http://sodipodi.sourceforge.net/DTD/sodipodi-0.dtd"
   xmlns="http://www.w3.org/2000/svg"
   xmlns:svg="http://www.w3.org/2000/svg"><sodipodi:namedview
     id="namedview1"
     pagecolor="#505050"
     bordercolor="#ffffff"
     borderopacity="1"
     inkscape:showpageshadow="0"
     inkscape:pageopacity="0"
     inkscape:pagecheckerboard="1"
     inkscape:deskcolor="#505050"
     inkscape:document-units="px"
     inkscape:zoom="1.6347656"
     inkscape:cx="232.44922"
     inkscape:cy="66.37037"
     inkscape:window-width="1920"
     inkscape:window-height="1017"
     inkscape:window-x="1912"
     inkscape:window-y="-8"
     inkscape:window-maximized="1"
     inkscape:current-layer="layer1" /><defs
     id="defs1" /><g
     inkscape:label="Layer 1"
     inkscape:groupmode="layer"
     id="layer1"
     transform="translate(-2.8688608,-178.28822)"><g
       id="g1"><path
         d="m 19.147669,257.80215 c 2.393943,-20.57354 13.884866,-29.65554 30.004078,-29.65554 13.725271,0 27.450541,8.15527 27.769733,29.65554 z m 74.371812,7.04319 c 0,-31.50902 -15.640424,-49.30235 -44.048541,-49.30235 -29.046502,0 -46.6020792,17.97868 -46.6020792,51.8972 0,29.47021 16.7575972,48.19026 46.1232902,48.19026 17.715175,0 39.420253,-6.6725 42.612177,-31.50901 H 75.006326 c -3.511116,13.345 -15.480828,18.90542 -26.812155,18.90542 -17.555579,0 -28.088924,-13.53035 -29.684887,-32.62111 h 75.010197 z"
         id="path1"
         style="font-stretch:expanded;font-size:154.803px;line-height:0;font-family:'Univers LT Std';-inkscape-font-specification:'Univers LT Std Expanded';letter-spacing:-18.96px;fill:#e53138;stroke-width:6.6736;stroke-linecap:square;stroke-linejoin:round"
         aria-label="eBiddle"
         sodipodi:nodetypes="csccssssccsccs" /><path
         d="m 92.990076,312.10885 h 58.412204 c 31.28084,0 43.88893,-17.23728 43.88893,-37.25477 0,-15.93986 -8.77778,-30.02623 -27.29094,-32.6211 v -0.55604 c 14.84245,-3.33625 22.98186,-12.60361 22.98186,-29.65553 0,-22.79771 -12.12932,-33.73319 -43.56976,-33.73319 H 92.990076 Z m 16.597994,-62.27662 h 38.78188 c 20.26871,0 29.36569,8.52595 29.36569,23.90977 0,12.9743 -5.90505,23.1684 -28.40811,23.1684 h -39.73946 z m 0,-56.34554 h 36.86672 c 22.66266,0 27.92933,8.34062 27.92933,20.75888 0,14.27173 -8.45859,20.38818 -22.34347,20.38818 h -42.45258 z"
         id="path2"
         style="font-stretch:expanded;font-size:154.803px;line-height:0;font-family:'Univers LT Std';-inkscape-font-specification:'Univers LT Std Expanded';letter-spacing:-18.96px;fill:#0064d2;fill-opacity:0.8;stroke-width:6.6736;stroke-linecap:square;stroke-linejoin:round"
         aria-label="eBiddle"
         sodipodi:nodetypes="cssccsscccssscccssscc" /><path
         d="m 195.58524,312.10885 h 15.64042 v -93.04426 h -15.64042 z m 0,-115.28592 h 15.64042 v -18.53471 h -15.64042 z"
         id="path3"
         style="font-stretch:expanded;font-size:154.803px;line-height:0;font-family:'Univers LT Std';-inkscape-font-specification:'Univers LT Std Expanded';letter-spacing:-18.96px;fill:#f5af02;fill-opacity:0.8;stroke-width:6.6736;stroke-linecap:square;stroke-linejoin:round"
         aria-label="eBiddle"
         sodipodi:nodetypes="cccccccccc" /><path
         d="m 290.02824,231.29751 c -9.89497,-12.23292 -22.34346,-15.75452 -35.11115,-15.75452 -23.93943,0 -44.68693,19.83215 -44.68693,50.04374 0,30.21158 20.7475,50.04372 44.68693,50.04372 14.20405,0 26.97174,-5.93111 35.11115,-16.68124 0,5.00437 0.31918,9.26736 0.63838,13.15964 h 15.64042 c -0.31919,-7.59923 -0.63837,-15.56916 -0.63837,-21.87096 V 178.28822 h -15.64043 z m -63.20007,34.28922 c 0,-23.53909 12.92727,-37.44012 31.60003,-37.44012 18.51315,0 31.60004,13.90103 31.60004,37.44012 0,23.53908 -13.08689,37.44013 -31.60004,37.44013 -18.67276,0 -31.60003,-13.90105 -31.60003,-37.44013 z"
         id="path4"
         style="font-stretch:expanded;font-size:154.803px;line-height:0;font-family:'Univers LT Std';-inkscape-font-specification:'Univers LT Std Expanded';letter-spacing:-18.96px;fill:#86b817;fill-opacity:0.8;stroke-width:6.6736;stroke-linecap:square;stroke-linejoin:round"
         aria-label="eBiddle"
         sodipodi:nodetypes="cssscccscccsssss" /><path
         d="m 384.45846,231.29751 c -9.89496,-12.23292 -22.34346,-15.75452 -35.11114,-15.75452 -23.93943,0 -44.68693,19.83215 -44.68693,50.04374 0,30.21158 20.7475,50.04372 44.68693,50.04372 14.20406,0 26.97174,-5.93111 35.11114,-16.68124 0,5.00437 0.31919,9.26736 0.63838,13.15964 h 15.64042 c -0.31918,-7.59923 -0.63837,-15.56916 -0.63837,-21.87096 V 178.28822 h -15.64043 z m -63.20008,34.28922 c 0,-23.53909 12.92729,-37.44012 31.60004,-37.44012 18.51315,0 31.60004,13.90103 31.60004,37.44012 0,23.53908 -13.08689,37.44013 -31.60004,37.44013 -18.67275,0 -31.60004,-13.90105 -31.60004,-37.44013 z"
         id="path5"
         style="font-stretch:expanded;font-size:154.803px;line-height:0;font-family:'Univers LT Std';-inkscape-font-specification:'Univers LT Std Expanded';letter-spacing:-18.96px;fill:#e53238;fill-opacity:0.8;stroke-width:6.6736;stroke-linecap:square;stroke-linejoin:round"
         aria-label="eBiddle"
         sodipodi:nodetypes="cssscccscccsssss" /><path
         d="m 399.76745,312.10885 h 15.64042 V 178.28822 h -15.64042 z"
         id="path6"
         style="font-stretch:expanded;font-size:154.803px;line-height:0;font-family:'Univers LT Std';-inkscape-font-specification:'Univers LT Std Expanded';letter-spacing:-18.96px;fill:#0064d2;fill-opacity:0.8;stroke-width:6.6736;stroke-linecap:square;stroke-linejoin:round"
         aria-label="eBiddle"
         sodipodi:nodetypes="ccccc" /><path
         d="m 431.63592,257.80215 c 2.39394,-20.57354 13.88486,-29.65554 30.00407,-29.65554 13.72527,0 27.45054,8.15527 27.76974,29.65554 z m 74.3718,7.04319 c 0,-31.50902 -15.64041,-49.30235 -44.04853,-49.30235 -29.0465,0 -46.60208,17.97868 -46.60208,51.8972 0,29.47021 16.75759,48.19026 46.12328,48.19026 17.71519,0 39.42025,-6.6725 42.61217,-31.50901 h -16.59799 c -3.51111,13.345 -15.48083,18.90542 -26.81215,18.90542 -17.55558,0 -28.08892,-13.53035 -29.68488,-32.62111 h 75.01018 z"
         id="path7"
         style="font-stretch:expanded;font-size:154.803px;line-height:0;font-family:'Univers LT Std';-inkscape-font-specification:'Univers LT Std Expanded';letter-spacing:-18.96px;fill:#f5af02;fill-opacity:0.8;stroke-width:6.6736;stroke-linecap:square;stroke-linejoin:round"
         aria-label="eBiddle"
         sodipodi:nodetypes="csccssssccsccs" /></g></g></svg>
